<?xml version="1.0" standalone="no"?>
<!DOCTYPE svg PUBLIC "-//W3C//DTD SVG 20010904//EN"
 "http://www.w3.org/TR/2001/REC-SVG-20010904/DTD/svg10.dtd">
<svg version="1.0" xmlns="http://www.w3.org/2000/svg"
 width="260.000000pt" height="260.000000pt" viewBox="0 0 260.000000 260.000000"
 preserveAspectRatio="xMidYMid meet">
<metadata>
Created by potrace 1.11, written by Peter Selinger 2001-2013
</metadata>
<g transform="translate(0.000000,260.000000) scale(0.100000,-0.100000)"
fill="#000000" stroke="none">
<path d="M1415 2033 c-122 -16 -243 -79 -341 -178 -160 -162 -216 -395 -145
-605 l29 -85 -220 -222 -221 -222 5 -46 c10 -85 96 -165 176 -165 l46 0 212
211 212 211 38 -25 c69 -45 193 -77 295 -77 179 0 328 65 450 197 220 238 211
602 -21 833 -138 138 -320 199 -515 173z m200 -54 c240 -44 457 -302 443 -525
l-3 -49 -60 -3 c-67 -4 -109 4 -100 18 3 6 -5 21 -19 35 -20 20 -26 36 -26 69
l0 44 -114 86 c-63 47 -118 86 -123 86 -6 0 -54 -29 -108 -65 -55 -36 -103
-65 -108 -65 -4 0 -25 11 -45 25 -20 14 -43 25 -51 25 -13 0 -179 -99 -213
-128 -12 -10 -18 -33 -20 -71 l-3 -56 -55 0 -55 0 -3 45 c-9 121 68 292 177
391 133 122 306 171 486 138z m85 -360 c76 -57 100 -83 87 -95 -3 -3 -35 15
-73 40 -37 25 -71 46 -76 46 -5 0 -33 -17 -64 -37 l-55 -36 -36 17 c-23 11
-33 20 -26 27 19 19 138 97 150 98 7 0 49 -26 93 -60z m-329 -54 c85 -52 100
-65 81 -72 -7 -3 -26 -16 -42 -30 -28 -23 -30 -30 -30 -94 0 -67 -1 -69 -25
-69 -23 0 -24 3 -27 73 l-3 72 -75 0 -75 0 -3 -72 c-3 -70 -4 -73 -27 -73 -25
0 -25 1 -25 98 l0 97 88 57 c48 32 88 57 89 58 0 0 34 -20 74 -45z m384 -86
l95 -64 0 -122 0 -123 -55 0 -55 0 0 99 c0 86 -2 100 -17 105 -28 8 -157 6
-170 -2 -8 -5 -13 -42 -15 -102 l-3 -95 -52 -3 -53 -3 0 125 0 124 98 66 c53
36 105 64 114 62 10 -2 60 -32 113 -67z m-485 -129 c0 -47 -2 -50 -25 -50 -23
0 -25 3 -25 50 0 47 2 50 25 50 23 0 25 -3 25 -50z m-198 -47 l3 -48 152 -3
152 -3 3 -62 3 -62 249 -3 c164 -1 252 1 256 8 3 6 5 50 4 98 -3 127 -7 122
86 122 l78 0 -12 -47 c-25 -93 -72 -178 -135 -245 -120 -128 -263 -185 -441
-175 -156 8 -270 63 -378 182 -57 63 -118 178 -128 243 l-7 42 56 0 56 0 3
-47z m618 -54 l0 -80 -52 3 -53 3 -3 64 c-4 87 -2 91 58 91 l50 0 0 -81z
m-690 -149 c0 -5 27 -39 61 -75 l61 -65 -201 -200 c-169 -168 -206 -200 -230
-200 -49 0 -121 76 -121 126 0 20 398 424 417 424 7 0 13 -4 13 -10z"/>
</g>
</svg>
